<svg xmlns="http://www.w3.org/2000/svg" width="19" height="19" fill="none" viewBox="0 0 19 19">
  <path fill="#F8F9F9" d="M4.463 7.611a1.26 1.26 0 1 1 2.519 0 1.26 1.26 0 0 1-2.519 0Zm3.777 0a1.26 1.26 0 1 1 2.52 0 1.26 1.26 0 0 1-2.52 0Zm3.779 0a1.26 1.26 0 1 1 2.518 0 1.26 1.26 0 0 1-2.518 0Z"/>
  <path stroke="#F8F9F9" stroke-linejoin="round" stroke-width="1.5" d="M1 11.861V3a2 2 0 0 1 2-2h13a2 2 0 0 1 2 2v8.593a2 2 0 0 1-2 2h-5.748a2 2 0 0 0-1.318.494L4.463 18v-2.676c0-.956-.775-1.731-1.732-1.731A1.731 1.731 0 0 1 1 11.86Z"/>
</svg>
