<svg xmlns="http://www.w3.org/2000/svg" width="22" height="25" fill="none" viewBox="0 0 22 25">
  <path stroke="#F8F9F9" stroke-width="1.5" d="M13.835 2.387a4.774 4.774 0 0 0 4.135 2.387c2.52 0 4.096 2.729 2.835 4.911a4.774 4.774 0 0 0 0 4.774c1.26 2.183-.315 4.911-2.835 4.911-1.706 0-3.282.91-4.134 2.387-1.26 2.183-4.411 2.183-5.671 0A4.774 4.774 0 0 0 4.03 19.37c-2.52 0-4.096-2.728-2.835-4.91a4.774 4.774 0 0 0 0-4.775c-1.26-2.183.315-4.91 2.835-4.91 1.706 0 3.282-.91 4.135-2.388 1.26-2.183 4.41-2.183 5.67 0Z"/>
  <path stroke="#F8F9F9" stroke-linecap="round" stroke-linejoin="round" stroke-width="1.5" d="M8.806 12a2.195 2.195 0 1 0 4.387.145A2.195 2.195 0 0 0 8.806 12Z"/>
</svg>
